<?xml version="1.0" encoding="UTF-8"?>
<svg width="283px" height="68px" viewBox="0 0 283 68" version="1.1" xmlns="http://www.w3.org/2000/svg" xmlns:xlink="http://www.w3.org/1999/xlink">
    <!-- Generator: Sketch 48.2 (47327) - http://www.bohemiancoding.com/sketch -->
    <title>credco-large@3x</title>
    <desc>Created with Sketch.</desc>
    <defs></defs>
    <g id="Page-1" stroke="none" stroke-width="1" fill="none" fill-rule="evenodd">
        <g id="credco-large">
            <g id="Group">
                <path d="M1.428,16.132 C1.428,13.7519881 1.8479958,11.5960097 2.688,9.664 C3.5280042,7.73199034 4.67599272,6.08000686 6.132,4.708 C7.58800728,3.33599314 9.30299013,2.27900371 11.277,1.537 C13.2510099,0.79499629 15.3579888,0.424 17.598,0.424 C19.8940115,0.424 22.0639898,0.79499629 24.108,1.537 C26.1520102,2.27900371 27.8599931,3.2799937 29.232,4.54 L23.1,11.932 C22.5399972,11.2039964 21.8400042,10.6510019 21,10.273 C20.1599958,9.89499811 19.2220052,9.706 18.186,9.706 C17.3459958,9.706 16.5620036,9.85299853 15.834,10.147 C15.1059964,10.4410015 14.4690027,10.8679972 13.923,11.428 C13.3769973,11.9880028 12.9500015,12.666996 12.642,13.465 C12.3339985,14.263004 12.18,15.1519951 12.18,16.132 C12.18,17.1120049 12.3409984,17.9869961 12.663,18.757 C12.9850016,19.5270038 13.4189973,20.1919972 13.965,20.752 C14.5110027,21.3120028 15.1479964,21.7389985 15.876,22.033 C16.6040036,22.3270015 17.3739959,22.474 18.186,22.474 C19.3340057,22.474 20.3209959,22.2360024 21.147,21.76 C21.9730041,21.2839976 22.6239976,20.7240032 23.1,20.08 L29.232,27.43 C27.8879933,28.7740067 26.2360098,29.844996 24.276,30.643 C22.3159902,31.441004 20.0900125,31.84 17.598,31.84 C15.3579888,31.84 13.2510099,31.4620038 11.277,30.706 C9.30299013,29.9499962 7.58800728,28.8790069 6.132,27.493 C4.67599272,26.1069931 3.5280042,24.4550096 2.688,22.537 C1.8479958,20.6189904 1.428,18.4840118 1.428,16.132 Z M33.004,1.264 L45.814,1.264 C47.2700073,1.264 48.7189928,1.41099853 50.161,1.705 C51.6030072,1.99900147 52.8909943,2.51699629 54.025,3.259 C55.1590057,4.00100371 56.0759965,4.99499377 56.776,6.241 C57.4760035,7.48700623 57.826,9.04799062 57.826,10.924 C57.826,12.7440091 57.3780045,14.3469931 56.482,15.733 C55.5859955,17.1190069 54.2980084,18.1899962 52.618,18.946 L60.178,31 L48.67,31 L42.958,20.374 L42.664,20.374 L42.664,31 L33.004,31 L33.004,1.264 Z M42.58,13.822 L44.554,13.822 C44.8900017,13.822 45.260998,13.7940003 45.667,13.738 C46.073002,13.6819997 46.4509983,13.5630009 46.801,13.381 C47.1510018,13.1989991 47.4449988,12.9470016 47.683,12.625 C47.9210012,12.3029984 48.04,11.8760027 48.04,11.344 C48.04,10.8119973 47.942001,10.3920015 47.746,10.084 C47.549999,9.77599846 47.2980015,9.54500077 46.99,9.391 C46.6819985,9.23699923 46.3460018,9.13900021 45.982,9.097 C45.6179982,9.05499979 45.2820015,9.034 44.974,9.034 L42.58,9.034 L42.58,13.822 Z M63.992,1.264 L84.446,1.264 L84.446,9.58 L73.4,9.58 L73.4,12.142 L83.774,12.142 L83.774,19.912 L73.4,19.912 L73.4,22.684 L85.16,22.684 L85.16,31 L63.992,31 L63.992,1.264 Z M90.318,31 L90.318,1.264 L101.406,1.264 C103.758012,1.264 106.004989,1.49499769 108.147,1.957 C110.289011,2.41900231 112.178992,3.21699433 113.817,4.351 C115.455008,5.48500567 116.763995,6.98999062 117.744,8.866 C118.724005,10.7420094 119.214,13.1079857 119.214,15.964 C119.214,18.568013 118.745005,20.8219905 117.807,22.726 C116.868995,24.6300095 115.616008,26.1909939 114.048,27.409 C112.479992,28.6270061 110.67401,29.5299971 108.63,30.118 C106.58599,30.7060029 104.458011,31 102.246,31 L90.318,31 Z M99.936,9.748 L99.936,22.432 L101.784,22.432 C104.136012,22.432 105.941994,21.9210051 107.202,20.899 C108.462006,19.8769949 109.092,18.2040116 109.092,15.88 C109.092,13.9479903 108.462006,12.4430054 107.202,11.365 C105.941994,10.2869946 104.262011,9.748 102.162,9.748 L99.936,9.748 Z M1.428,51.132 C1.428,48.7519881 1.8479958,46.5960097 2.688,44.664 C3.5280042,42.7319903 4.67599272,41.0800069 6.132,39.708 C7.58800728,38.3359931 9.30299013,37.2790037 11.277,36.537 C13.2510099,35.7949963 15.3579888,35.424 17.598,35.424 C19.8940115,35.424 22.0639898,35.7949963 24.108,36.537 C26.1520102,37.2790037 27.8599931,38.2799937 29.232,39.54 L23.1,46.932 C22.5399972,46.2039964 21.8400042,45.6510019 21,45.273 C20.1599958,44.8949981 19.2220052,44.706 18.186,44.706 C17.3459958,44.706 16.5620036,44.8529985 15.834,45.147 C15.1059964,45.4410015 14.4690027,45.8679972 13.923,46.428 C13.3769973,46.9880028 12.9500015,47.666996 12.642,48.465 C12.3339985,49.263004 12.18,50.1519951 12.18,51.132 C12.18,52.1120049 12.3409984,52.9869962 12.663,53.757 C12.9850016,54.5270039 13.4189973,55.1919972 13.965,55.752 C14.5110027,56.3120028 15.1479964,56.7389985 15.876,57.033 C16.6040036,57.3270015 17.3739959,57.474 18.186,57.474 C19.3340057,57.474 20.3209959,57.2360024 21.147,56.76 C21.9730041,56.2839976 22.6239976,55.7240032 23.1,55.08 L29.232,62.43 C27.8879933,63.7740067 26.2360098,64.844996 24.276,65.643 C22.3159902,66.441004 20.0900125,66.84 17.598,66.84 C15.3579888,66.84 13.2510099,66.4620038 11.277,65.706 C9.30299013,64.9499962 7.58800728,63.8790069 6.132,62.493 C4.67599272,61.1069931 3.5280042,59.4550096 2.688,57.537 C1.8479958,55.6189904 1.428,53.4840118 1.428,51.132 Z M31.156,50.964 C31.156,48.5839881 31.5759958,46.4350096 32.416,44.517 C33.2560042,42.5989904 34.4109927,40.9680067 35.881,39.624 C37.3510074,38.2799933 39.0939899,37.2440036 41.11,36.516 C43.1260101,35.7879964 45.3099882,35.424 47.662,35.424 C50.0140118,35.424 52.1979899,35.7879964 54.214,36.516 C56.2300101,37.2440036 57.9799926,38.2799933 59.464,39.624 C60.9480074,40.9680067 62.1099958,42.5989904 62.95,44.517 C63.7900042,46.4350096 64.21,48.5839881 64.21,50.964 C64.21,53.3440119 63.7900042,55.5139902 62.95,57.474 C62.1099958,59.4340098 60.9480074,61.1069931 59.464,62.493 C57.9799926,63.8790069 56.2300101,64.9499962 54.214,65.706 C52.1979899,66.4620038 50.0140118,66.84 47.662,66.84 C45.3099882,66.84 43.1260101,66.4620038 41.11,65.706 C39.0939899,64.9499962 37.3510074,63.8790069 35.881,62.493 C34.4109927,61.1069931 33.2560042,59.4340098 32.416,57.474 C31.5759958,55.5139902 31.156,53.3440119 31.156,50.964 Z M41.782,50.964 C41.782,51.9440049 41.9289985,52.8399959 42.223,53.652 C42.5170015,54.4640041 42.9229974,55.1639971 43.441,55.752 C43.9590026,56.3400029 44.5819964,56.7949984 45.31,57.117 C46.0380036,57.4390016 46.8219958,57.6 47.662,57.6 C48.5020042,57.6 49.2789964,57.4390016 49.993,57.117 C50.7070036,56.7949984 51.3299973,56.3400029 51.862,55.752 C52.3940027,55.1639971 52.8069985,54.4640041 53.101,53.652 C53.3950015,52.8399959 53.542,51.9440049 53.542,50.964 C53.542,50.0119952 53.3950015,49.137004 53.101,48.339 C52.8069985,47.540996 52.3940027,46.8690027 51.862,46.323 C51.3299973,45.7769973 50.7070036,45.3500015 49.993,45.042 C49.2789964,44.7339985 48.5020042,44.58 47.662,44.58 C46.8219958,44.58 46.0380036,44.7339985 45.31,45.042 C44.5819964,45.3500015 43.9590026,45.7769973 43.441,46.323 C42.9229974,46.8690027 42.5170015,47.540996 42.223,48.339 C41.9289985,49.137004 41.782,50.0119952 41.782,50.964 Z" id="CRED-CO" fill="#3E3E3F"></path>
                <path d="M123.272,1.264 L133.352,1.264 L133.352,31 L123.272,31 L123.272,1.264 Z M149.22,9.034 L149.22,12.688 L151.908,12.688 C152.608003,12.688 153.181998,12.5270016 153.63,12.205 C154.078002,11.8829984 154.302,11.3860034 154.302,10.714 C154.302,10.1539972 154.064002,9.7340014 153.588,9.454 C153.111998,9.1739986 152.482004,9.034 151.698,9.034 L149.22,9.034 Z M149.22,19.114 L149.22,23.146 L152.202,23.146 C152.986004,23.146 153.622998,22.9710017 154.113,22.621 C154.603002,22.2709983 154.848,21.7600034 154.848,21.088 C154.848,20.695998 154.743001,20.3740013 154.533,20.122 C154.322999,19.8699987 154.064002,19.6670008 153.756,19.513 C153.447998,19.3589992 153.119002,19.2540003 152.769,19.198 C152.418998,19.1419997 152.090002,19.114 151.782,19.114 L149.22,19.114 Z M159.342,15.544 C160.042003,15.7120008 160.727997,15.9849981 161.4,16.363 C162.072003,16.7410019 162.673997,17.2169971 163.206,17.791 C163.738003,18.3650029 164.157998,19.0299962 164.466,19.786 C164.774002,20.5420038 164.928,21.3819954 164.928,22.306 C164.928,23.9300081 164.599003,25.2949945 163.941,26.401 C163.282997,27.5070055 162.415005,28.4029966 161.337,29.089 C160.258995,29.7750034 159.027007,30.2649985 157.641,30.559 C156.254993,30.8530015 154.834007,31 153.378,31 L139.896,31 L139.896,1.264 L152.118,1.264 C153.322006,1.264 154.602993,1.35499909 155.961,1.537 C157.319007,1.71900091 158.571994,2.08299727 159.72,2.629 C160.868006,3.17500273 161.819996,3.97299475 162.576,5.023 C163.332004,6.07300525 163.71,7.45199146 163.71,9.16 C163.71,10.756008 163.311004,12.0719948 162.513,13.108 C161.714996,14.1440052 160.658007,14.9139975 159.342,15.418 L159.342,15.544 Z M170.002,1.264 L180.082,1.264 L180.082,31 L170.002,31 L170.002,1.264 Z M186.626,1.264 L196.706,1.264 L196.706,22.432 L206.576,22.432 L206.576,31 L186.626,31 L186.626,1.264 Z M210.684,1.264 L220.764,1.264 L220.764,31 L210.684,31 L210.684,1.264 Z M242.134,31 L232.138,31 L232.138,9.706 L224.83,9.706 L224.83,1.264 L249.442,1.264 L249.442,9.706 L242.134,9.706 L242.134,31 Z M270.434,31 L260.438,31 L260.438,18.82 L249.224,1.264 L261.278,1.264 L265.982,10 L270.476,1.264 L282.236,1.264 L270.434,18.82 L270.434,31 Z M74.046,36.264 L84.672,36.264 L96.264,66 L85.386,66 L83.832,61.632 L74.382,61.632 L72.912,66 L62.328,66 L74.046,36.264 Z M79.212,46.638 L76.776,53.988 L81.606,53.988 L79.212,46.638 Z M99.364,36.264 L109.444,36.264 L109.444,57.432 L119.314,57.432 L119.314,66 L99.364,66 L99.364,36.264 Z M123.422,36.264 L133.502,36.264 L133.502,66 L123.422,66 L123.422,36.264 Z M154.872,66 L144.876,66 L144.876,44.706 L137.568,44.706 L137.568,36.264 L162.18,36.264 L162.18,44.706 L154.872,44.706 L154.872,66 Z M166.246,36.264 L176.326,36.264 L176.326,66 L166.246,66 L166.246,36.264 Z M181.526,50.964 C181.526,48.5839881 181.945996,46.4350096 182.786,44.517 C183.626004,42.5989904 184.780993,40.9680067 186.251,39.624 C187.721007,38.2799933 189.46399,37.2440036 191.48,36.516 C193.49601,35.7879964 195.679988,35.424 198.032,35.424 C200.384012,35.424 202.56799,35.7879964 204.584,36.516 C206.60001,37.2440036 208.349993,38.2799933 209.834,39.624 C211.318007,40.9680067 212.479996,42.5989904 213.32,44.517 C214.160004,46.4350096 214.58,48.5839881 214.58,50.964 C214.58,53.3440119 214.160004,55.5139902 213.32,57.474 C212.479996,59.4340098 211.318007,61.1069931 209.834,62.493 C208.349993,63.8790069 206.60001,64.9499962 204.584,65.706 C202.56799,66.4620038 200.384012,66.84 198.032,66.84 C195.679988,66.84 193.49601,66.4620038 191.48,65.706 C189.46399,64.9499962 187.721007,63.8790069 186.251,62.493 C184.780993,61.1069931 183.626004,59.4340098 182.786,57.474 C181.945996,55.5139902 181.526,53.3440119 181.526,50.964 Z M192.152,50.964 C192.152,51.9440049 192.298999,52.8399959 192.593,53.652 C192.887001,54.4640041 193.292997,55.1639971 193.811,55.752 C194.329003,56.3400029 194.951996,56.7949984 195.68,57.117 C196.408004,57.4390016 197.191996,57.6 198.032,57.6 C198.872004,57.6 199.648996,57.4390016 200.363,57.117 C201.077004,56.7949984 201.699997,56.3400029 202.232,55.752 C202.764003,55.1639971 203.176999,54.4640041 203.471,53.652 C203.765001,52.8399959 203.912,51.9440049 203.912,50.964 C203.912,50.0119952 203.765001,49.137004 203.471,48.339 C203.176999,47.540996 202.764003,46.8690027 202.232,46.323 C201.699997,45.7769973 201.077004,45.3500015 200.363,45.042 C199.648996,44.7339985 198.872004,44.58 198.032,44.58 C197.191996,44.58 196.408004,44.7339985 195.68,45.042 C194.951996,45.3500015 194.329003,45.7769973 193.811,46.323 C193.292997,46.8690027 192.887001,47.540996 192.593,48.339 C192.298999,49.137004 192.152,50.0119952 192.152,50.964 Z M219.78,36.264 L229.734,36.264 L238.218,51.342 L238.386,51.342 L237.966,36.264 L247.458,36.264 L247.458,66 L237.252,66 L229.02,51.804 L228.852,51.804 L229.272,66 L219.78,66 L219.78,36.264 Z" id="IBILITY-ALITION" fill="#919396"></path>
            </g>
        </g>
    </g>
</svg>