<?xml version="1.0" encoding="UTF-8"?>
<svg width="160px" height="37px" viewBox="0 0 160 37" version="1.1" xmlns="http://www.w3.org/2000/svg" xmlns:xlink="http://www.w3.org/1999/xlink">
    <!-- Generator: Sketch 48.2 (47327) - http://www.bohemiancoding.com/sketch -->
    <title>credco-medium@3x</title>
    <desc>Created with Sketch.</desc>
    <defs></defs>
    <g id="Page-1" stroke="none" stroke-width="1" fill="none" fill-rule="evenodd">
        <g id="credco-medium" fill="#3E3E3F">
            <g id="Group" transform="translate(0.000000, 1.000000)">
                <path d="M0.748,8.212 C0.748,6.9653271 0.9679978,5.83600506 1.408,4.824 C1.8480022,3.81199494 2.44932952,2.94667026 3.212,2.228 C3.97467048,1.50932974 4.87299483,0.95566861 5.907,0.567 C6.94100517,0.17833139 8.0446608,-0.016 9.218,-0.016 C10.4206727,-0.016 11.557328,0.17833139 12.628,0.567 C13.698672,0.95566861 14.5933297,1.4799967 15.312,2.14 L12.1,6.012 C11.8066652,5.63066476 11.4400022,5.34100099 11,5.143 C10.5599978,4.94499901 10.0686694,4.846 9.526,4.846 C9.0859978,4.846 8.67533524,4.92299923 8.294,5.077 C7.91266476,5.23100077 7.57900143,5.4546652 7.293,5.748 C7.00699857,6.0413348 6.78333414,6.39699791 6.622,6.815 C6.46066586,7.23300209 6.38,7.6986641 6.38,8.212 C6.38,8.7253359 6.46433249,9.18366465 6.633,9.587 C6.80166751,9.99033535 7.02899857,10.3386652 7.315,10.632 C7.60100143,10.9253348 7.93466476,11.1489992 8.316,11.303 C8.69733524,11.4570008 9.10066454,11.534 9.526,11.534 C10.1273363,11.534 10.6443312,11.4093346 11.077,11.16 C11.5096688,10.9106654 11.8506654,10.617335 12.1,10.28 L15.312,14.13 C14.6079965,14.8340035 13.7426718,15.3949979 12.716,15.813 C11.6893282,16.2310021 10.5233399,16.44 9.218,16.44 C8.0446608,16.44 6.94100517,16.242002 5.907,15.846 C4.87299483,15.449998 3.97467048,14.8890036 3.212,14.163 C2.44932952,13.4369964 1.8480022,12.5716717 1.408,11.567 C0.9679978,10.5623283 0.748,9.44400616 0.748,8.212 Z M17.664,0.424 L24.374,0.424 C25.1366705,0.424 25.8956629,0.50099923 26.651,0.655 C27.4063371,0.80900077 28.080997,1.08033139 28.675,1.469 C29.2690029,1.85766861 29.7493315,2.37833007 30.116,3.031 C30.4826685,3.68366993 30.666,4.50132842 30.666,5.484 C30.666,6.4373381 30.4313357,7.27699637 29.962,8.003 C29.4926643,8.72900363 28.8180044,9.28999802 27.938,9.686 L31.898,16 L25.87,16 L22.878,10.434 L22.724,10.434 L22.724,16 L17.664,16 L17.664,0.424 Z M22.68,7.002 L23.714,7.002 C23.8900009,7.002 24.0843322,6.98733348 24.297,6.958 C24.5096677,6.92866652 24.7076657,6.86633381 24.891,6.771 C25.0743342,6.67566619 25.2283327,6.54366751 25.353,6.375 C25.4776673,6.20633249 25.54,5.98266806 25.54,5.704 C25.54,5.42533194 25.4886672,5.20533414 25.386,5.044 C25.2833328,4.88266586 25.1513341,4.76166707 24.99,4.681 C24.8286658,4.60033293 24.6526676,4.54900011 24.462,4.527 C24.2713324,4.50499989 24.0953341,4.494 23.934,4.494 L22.68,4.494 L22.68,7.002 Z M34.272,0.424 L44.986,0.424 L44.986,4.78 L39.2,4.78 L39.2,6.122 L44.634,6.122 L44.634,10.192 L39.2,10.192 L39.2,11.644 L45.36,11.644 L45.36,16 L34.272,16 L34.272,0.424 Z M48.4379999,16 L48.4379999,0.424 L54.2459999,0.424 C55.4780061,0.424 56.6549943,0.54499879 57.7769999,0.787 C58.8990055,1.02900121 59.8889956,1.44699703 60.7469999,2.041 C61.6050042,2.63500297 62.290664,3.42332842 62.8039999,4.406 C63.3173358,5.38867158 63.5739999,6.62799252 63.5739999,8.124 C63.5739999,9.48800682 63.3283357,10.6686617 62.8369999,11.666 C62.3456641,12.6633383 61.6893374,13.4809968 60.8679999,14.119 C60.0466625,14.7570032 59.1006719,15.2299985 58.0299999,15.538 C56.9593279,15.8460015 55.8446724,16 54.6859999,16 L48.4379999,16 Z M53.4759999,4.868 L53.4759999,11.512 L54.4439999,11.512 C55.6760061,11.512 56.6219966,11.244336 57.2819999,10.709 C57.9420032,10.173664 58.2719999,9.29733942 58.2719999,8.08 C58.2719999,7.06799494 57.9420032,6.27966949 57.2819999,5.715 C56.6219966,5.15033051 55.7420054,4.868 54.6419999,4.868 L53.4759999,4.868 Z M66.6739999,0.424 L71.9539999,0.424 L71.9539999,16 L66.6739999,16 L66.6739999,0.424 Z M80.6419999,4.494 L80.6419999,6.408 L82.0499999,6.408 C82.4166684,6.408 82.717332,6.32366751 82.9519999,6.155 C83.1866677,5.98633249 83.3039999,5.72600176 83.3039999,5.374 C83.3039999,5.0806652 83.1793345,4.8606674 82.9299999,4.714 C82.6806653,4.5673326 82.3506686,4.494 81.9399999,4.494 L80.6419999,4.494 Z M80.6419999,9.774 L80.6419999,11.886 L82.2039999,11.886 C82.6146686,11.886 82.9483319,11.7943342 83.2049999,11.611 C83.4616678,11.4276658 83.5899999,11.1600018 83.5899999,10.808 C83.5899999,10.6026656 83.5350004,10.4340007 83.4249999,10.302 C83.3149993,10.1699993 83.179334,10.0636671 83.0179999,9.983 C82.8566657,9.90233293 82.6843341,9.84733348 82.5009999,9.818 C82.3176656,9.78866652 82.145334,9.774 81.9839999,9.774 L80.6419999,9.774 Z M85.9439999,7.904 C86.3106684,7.99200044 86.6699981,8.13499901 87.0219999,8.333 C87.3740016,8.53100099 87.6893318,8.78033183 87.9679999,9.081 C88.2466679,9.38166817 88.4666657,9.72999802 88.6279999,10.126 C88.789334,10.522002 88.8699999,10.9619976 88.8699999,11.446 C88.8699999,12.2966709 88.6976683,13.0116638 88.3529999,13.591 C88.0083315,14.1703362 87.5536694,14.6396649 86.9889999,14.999 C86.4243304,15.3583351 85.7790035,15.6149992 85.0529999,15.769 C84.3269963,15.9230008 83.5826704,16 82.8199999,16 L75.7579999,16 L75.7579999,0.424 L82.1599999,0.424 C82.7906697,0.424 83.461663,0.47166619 84.1729999,0.567 C84.8843368,0.66233381 85.5406635,0.85299857 86.1419999,1.139 C86.7433362,1.42500143 87.2419979,1.84299725 87.6379999,2.393 C88.0340019,2.94300275 88.2319999,3.66532886 88.2319999,4.56 C88.2319999,5.39600418 88.023002,6.08533062 87.6049999,6.628 C87.1869978,7.17066938 86.6333367,7.57399868 85.9439999,7.838 L85.9439999,7.904 Z M91.9039999,0.424 L97.1839999,0.424 L97.1839999,16 L91.9039999,16 L91.9039999,0.424 Z M100.988,0.424 L106.268,0.424 L106.268,11.512 L111.438,11.512 L111.438,16 L100.988,16 L100.988,0.424 Z M113.966,0.424 L119.246,0.424 L119.246,16 L113.966,16 L113.966,0.424 Z M130.816,16 L125.58,16 L125.58,4.846 L121.752,4.846 L121.752,0.424 L134.644,0.424 L134.644,4.846 L130.816,4.846 L130.816,16 Z M146.016,16 L140.78,16 L140.78,9.62 L134.906,0.424 L141.22,0.424 L143.684,5 L146.038,0.424 L152.198,0.424 L146.016,9.62 L146.016,16 Z M0.748,27.212 C0.748,25.9653271 0.9679978,24.8360051 1.408,23.824 C1.8480022,22.8119949 2.44932952,21.9466703 3.212,21.228 C3.97467048,20.5093297 4.87299483,19.9556686 5.907,19.567 C6.94100517,19.1783314 8.0446608,18.984 9.218,18.984 C10.4206727,18.984 11.557328,19.1783314 12.628,19.567 C13.698672,19.9556686 14.5933297,20.4799967 15.312,21.14 L12.1,25.012 C11.8066652,24.6306648 11.4400022,24.341001 11,24.143 C10.5599978,23.944999 10.0686694,23.846 9.526,23.846 C9.0859978,23.846 8.67533524,23.9229992 8.294,24.077 C7.91266476,24.2310008 7.57900143,24.4546652 7.293,24.748 C7.00699857,25.0413348 6.78333414,25.3969979 6.622,25.815 C6.46066586,26.2330021 6.38,26.6986641 6.38,27.212 C6.38,27.7253359 6.46433249,28.1836646 6.633,28.587 C6.80166751,28.9903353 7.02899857,29.3386652 7.315,29.632 C7.60100143,29.9253348 7.93466476,30.1489992 8.316,30.303 C8.69733524,30.4570008 9.10066454,30.534 9.526,30.534 C10.1273363,30.534 10.6443312,30.4093346 11.077,30.16 C11.5096688,29.9106654 11.8506654,29.617335 12.1,29.28 L15.312,33.13 C14.6079965,33.8340035 13.7426718,34.3949979 12.716,34.813 C11.6893282,35.2310021 10.5233399,35.44 9.218,35.44 C8.0446608,35.44 6.94100517,35.242002 5.907,34.846 C4.87299483,34.449998 3.97467048,33.8890036 3.212,33.163 C2.44932952,32.4369964 1.8480022,31.5716717 1.408,30.567 C0.9679978,29.5623283 0.748,28.4440062 0.748,27.212 Z M16.696,27.124 C16.696,25.8773271 16.9159978,24.7516717 17.356,23.747 C17.7960022,22.7423283 18.4009961,21.8880035 19.171,21.184 C19.9410038,20.4799965 20.8539947,19.9373352 21.91,19.556 C22.9660053,19.1746648 24.1099938,18.984 25.342,18.984 C26.5740061,18.984 27.7179947,19.1746648 28.774,19.556 C29.8300053,19.9373352 30.7466628,20.4799965 31.524,21.184 C32.3013372,21.8880035 32.9099978,22.7423283 33.35,23.747 C33.7900022,24.7516717 34.01,25.8773271 34.01,27.124 C34.01,28.3706729 33.7900022,29.5073282 33.35,30.534 C32.9099978,31.5606718 32.3013372,32.4369964 31.524,33.163 C30.7466628,33.8890036 29.8300053,34.449998 28.774,34.846 C27.7179947,35.242002 26.5740061,35.44 25.342,35.44 C24.1099938,35.44 22.9660053,35.242002 21.91,34.846 C20.8539947,34.449998 19.9410038,33.8890036 19.171,33.163 C18.4009961,32.4369964 17.7960022,31.5606718 17.356,30.534 C16.9159978,29.5073282 16.696,28.3706729 16.696,27.124 Z M22.262,27.124 C22.262,27.6373359 22.3389992,28.1066645 22.493,28.532 C22.6470007,28.9573355 22.8596653,29.3239985 23.131,29.632 C23.4023347,29.9400015 23.7286647,30.1783325 24.11,30.347 C24.4913352,30.5156675 24.9019978,30.6 25.342,30.6 C25.7820022,30.6 26.1889981,30.5156675 26.563,30.347 C26.9370018,30.1783325 27.2633319,29.9400015 27.542,29.632 C27.820668,29.3239985 28.0369992,28.9573355 28.191,28.532 C28.3450007,28.1066645 28.422,27.6373359 28.422,27.124 C28.422,26.6253308 28.3450007,26.1670021 28.191,25.749 C28.0369992,25.3309979 27.820668,24.9790014 27.542,24.693 C27.2633319,24.4069986 26.9370018,24.1833341 26.563,24.022 C26.1889981,23.8606659 25.7820022,23.78 25.342,23.78 C24.9019978,23.78 24.4913352,23.8606659 24.11,24.022 C23.7286647,24.1833341 23.4023347,24.4069986 23.131,24.693 C22.8596653,24.9790014 22.6470007,25.3309979 22.493,25.749 C22.3389992,26.1670021 22.262,26.6253308 22.262,27.124 Z M40.448,19.424 L46.014,19.424 L52.086,35 L46.388,35 L45.574,32.712 L40.624,32.712 L39.854,35 L34.31,35 L40.448,19.424 Z M43.154,24.858 L41.878,28.708 L44.408,28.708 L43.154,24.858 Z M53.686,19.424 L58.966,19.424 L58.966,30.512 L64.136,30.512 L64.136,35 L53.686,35 L53.686,19.424 Z M66.664,19.424 L71.944,19.424 L71.944,35 L66.664,35 L66.664,19.424 Z M83.5139999,35 L78.2779999,35 L78.2779999,23.846 L74.4499999,23.846 L74.4499999,19.424 L87.3419999,19.424 L87.3419999,23.846 L83.5139999,23.846 L83.5139999,35 Z M89.8479999,19.424 L95.1279999,19.424 L95.1279999,35 L89.8479999,35 L89.8479999,19.424 Z M98.2279999,27.124 C98.2279999,25.8773271 98.4479977,24.7516717 98.8879999,23.747 C99.3280021,22.7423283 99.932996,21.8880035 100.703,21.184 C101.473004,20.4799965 102.385995,19.9373352 103.442,19.556 C104.498005,19.1746648 105.641994,18.984 106.874,18.984 C108.106006,18.984 109.249995,19.1746648 110.306,19.556 C111.362005,19.9373352 112.278663,20.4799965 113.056,21.184 C113.833337,21.8880035 114.441998,22.7423283 114.882,23.747 C115.322002,24.7516717 115.542,25.8773271 115.542,27.124 C115.542,28.3706729 115.322002,29.5073282 114.882,30.534 C114.441998,31.5606718 113.833337,32.4369964 113.056,33.163 C112.278663,33.8890036 111.362005,34.449998 110.306,34.846 C109.249995,35.242002 108.106006,35.44 106.874,35.44 C105.641994,35.44 104.498005,35.242002 103.442,34.846 C102.385995,34.449998 101.473004,33.8890036 100.703,33.163 C99.932996,32.4369964 99.3280021,31.5606718 98.8879999,30.534 C98.4479977,29.5073282 98.2279999,28.3706729 98.2279999,27.124 Z M103.794,27.124 C103.794,27.6373359 103.870999,28.1066645 104.025,28.532 C104.179001,28.9573355 104.391665,29.3239985 104.663,29.632 C104.934335,29.9400015 105.260665,30.1783325 105.642,30.347 C106.023335,30.5156675 106.433998,30.6 106.874,30.6 C107.314002,30.6 107.720998,30.5156675 108.095,30.347 C108.469002,30.1783325 108.795332,29.9400015 109.074,29.632 C109.352668,29.3239985 109.568999,28.9573355 109.723,28.532 C109.877001,28.1066645 109.954,27.6373359 109.954,27.124 C109.954,26.6253308 109.877001,26.1670021 109.723,25.749 C109.568999,25.3309979 109.352668,24.9790014 109.074,24.693 C108.795332,24.4069986 108.469002,24.1833341 108.095,24.022 C107.720998,23.8606659 107.314002,23.78 106.874,23.78 C106.433998,23.78 106.023335,23.8606659 105.642,24.022 C105.260665,24.1833341 104.934335,24.4069986 104.663,24.693 C104.391665,24.9790014 104.179001,25.3309979 104.025,25.749 C103.870999,26.1670021 103.794,26.6253308 103.794,27.124 Z M118.642,19.424 L123.856,19.424 L128.3,27.322 L128.388,27.322 L128.168,19.424 L133.14,19.424 L133.14,35 L127.794,35 L123.482,27.564 L123.394,27.564 L123.614,35 L118.642,35 L118.642,19.424 Z" id="CREDIBILITY-COALITIO"></path>
            </g>
        </g>
    </g>
</svg>