<svg xmlns="http://www.w3.org/2000/svg" viewBox="0 0 816.54 171.02"><defs><style>.a{fill:#3f3e3e;}</style></defs><title>FM_LOGOs</title><path class="a" d="M31.33,40.34H79.41V51.11H43.46V75.38H76.23V86.15H43.46v31.3H31.33Z"/><path class="a" d="M161.06,103h-31.3l-6,14.4H111.5l33.79-78.7H146l33.91,78.7H167.07ZM134.18,92.39h22.45l-11.11-27Z"/><path class="a" d="M350.78,51.11H327.87V40.34h57.94V51.11H362.91v66.34H350.78Z"/><path class="a" d="M430.74,38.75h.57L469,82.18l37.19-43.43h.57v78.7H495.27v-50L469,98.85h-.57L442.2,67.44v50H430.74Z"/><path class="a" d="M583.69,103h-31.3l-6,14.4H534.14l33.79-78.7h.68l33.91,78.7H589.7ZM556.81,92.39h22.45l-11.11-27Z"/><path class="a" d="M650.86,51.11H628V40.34H685.9V51.11H663v66.34H650.86Z"/><path class="a" d="M764.37,103h-31.3l-6,14.4H714.82l33.79-78.7h.68l33.91,78.7H770.38ZM737.5,92.39H760l-11.11-27Z"/><circle class="a" cx="252.76" cy="138.71" r="6"/><path class="a" d="M254.13,57.5c-12.54,0-17.74,9.66-19.56,14.51l5.94,1.51c2.72-6.76,7.27-10.19,13.55-10.19h.07c10.19,0,17.3,7.23,17.3,17.49,0,8.72-5.75,18.11-18.38,18.11h-3v20.94a43.74,43.74,0,0,0,6.23.24V104.46l.59-.05c12.76-1.19,21-10.44,21-23.58C277.82,66.87,268.3,57.5,254.13,57.5Z"/><path class="a" d="M278.23,97.93a26.85,26.85,0,0,1-16.82,10.58v11.23c11.34-1.4,19.56-6.48,26.23-15.35Z"/><path class="a" d="M228.23,80.58c0-16.33,11.11-28.58,26.42-28.58,10.21,0,17.09,4,22.53,10.09L285.83,56c-6.69-9.41-16.55-15-30.84-15-22,0-39.35,16.78-39.35,39.58,0,19.25,12.15,34.18,29.18,38.36V107.22C234.81,103.21,228.23,93.28,228.23,80.58Z"/></svg>